<svg xmlns="http://www.w3.org/2000/svg" xmlns:xlink="http://www.w3.org/1999/xlink" width="1920" zoomAndPan="magnify" viewBox="0 0 1440 809.999993" height="1080" preserveAspectRatio="xMidYMid meet" version="1.0"><defs><g/><clipPath id="63b657c13b"><path d="M 261.460938 235.398438 L 616 235.398438 L 616 574.398438 L 261.460938 574.398438 Z M 261.460938 235.398438 " clip-rule="nonzero"/></clipPath></defs><g clip-path="url(#63b657c13b)"><path fill="#877eff" d="M 430.960938 243.691406 C 468.34375 243.691406 504.78125 256.773438 533.5625 280.527344 C 534.296875 281.128906 535.21875 281.464844 536.175781 281.464844 L 573.144531 281.464844 C 574.636719 284.382812 577.671875 286.378906 581.175781 286.378906 C 586.15625 286.378906 590.195312 282.339844 590.195312 277.359375 C 590.195312 272.378906 586.15625 268.339844 581.175781 268.339844 C 577.671875 268.339844 574.636719 270.339844 573.144531 273.257812 L 537.636719 273.257812 C 523.066406 261.441406 506.792969 252.199219 489.242188 245.773438 C 470.601562 238.945312 450.992188 235.484375 430.960938 235.484375 C 408.078125 235.484375 385.875 239.964844 364.976562 248.808594 C 344.789062 257.347656 326.660156 269.570312 311.09375 285.132812 C 295.53125 300.699219 283.308594 318.828125 274.769531 339.011719 C 265.929688 359.914062 261.449219 382.113281 261.449219 404.996094 C 261.449219 427.878906 265.929688 450.078125 274.769531 470.980469 C 283.308594 491.164062 295.53125 509.292969 311.09375 524.859375 C 326.660156 540.425781 344.789062 552.648438 364.976562 561.183594 C 385.875 570.027344 408.078125 574.507812 430.960938 574.507812 C 450.40625 574.507812 469.476562 571.242188 487.640625 564.800781 C 504.742188 558.730469 520.691406 549.984375 535.054688 538.792969 L 565.761719 538.792969 C 567.191406 541.894531 570.324219 544.050781 573.960938 544.050781 C 578.941406 544.050781 582.980469 540.011719 582.980469 535.03125 C 582.980469 530.050781 578.941406 526.011719 573.960938 526.011719 C 570.597656 526.011719 567.664062 527.851562 566.113281 530.582031 L 533.632812 530.582031 C 532.710938 530.582031 531.808594 530.894531 531.085938 531.472656 C 502.34375 554.257812 467.722656 566.300781 430.960938 566.300781 C 342.015625 566.300781 269.652344 493.941406 269.652344 404.996094 C 269.652344 316.054688 342.015625 243.691406 430.960938 243.691406 Z M 606.636719 318.941406 C 611.714844 318.941406 615.832031 314.820312 615.832031 309.746094 C 615.832031 304.667969 611.714844 300.550781 606.636719 300.550781 C 603.175781 300.550781 600.164062 302.464844 598.59375 305.289062 L 465.570312 305.289062 C 465.457031 305.167969 465.375 305.019531 465.335938 304.847656 L 461.292969 287.519531 C 460.21875 282.933594 457.601562 278.796875 453.914062 275.871094 C 450.222656 272.945312 445.601562 271.332031 440.890625 271.332031 L 420.632812 271.332031 C 415.925781 271.332031 411.300781 272.945312 407.609375 275.871094 C 403.921875 278.796875 401.300781 282.933594 400.230469 287.519531 L 396.1875 304.847656 C 396.113281 305.179688 395.878906 305.433594 395.550781 305.550781 C 392.253906 306.726562 388.984375 308.082031 385.828125 309.582031 C 385.507812 309.734375 385.160156 309.71875 384.875 309.539062 L 369.757812 300.144531 C 365.757812 297.65625 360.980469 296.582031 356.300781 297.125 C 351.625 297.664062 347.214844 299.792969 343.886719 303.121094 L 329.5625 317.445312 C 326.230469 320.773438 324.101562 325.183594 323.5625 329.863281 C 323.023438 334.542969 324.097656 339.320312 326.582031 343.320312 L 335.980469 358.429688 C 336.15625 358.722656 336.171875 359.070312 336.019531 359.394531 C 334.519531 362.546875 333.164062 365.816406 331.988281 369.113281 C 331.871094 369.441406 331.617188 369.675781 331.289062 369.75 L 313.960938 373.792969 C 309.375 374.863281 305.238281 377.484375 302.308594 381.171875 C 299.382812 384.859375 297.769531 389.484375 297.769531 394.195312 L 297.769531 416.253906 C 297.769531 419.832031 298.996094 423.34375 301.21875 426.144531 C 303.441406 428.945312 306.582031 430.9375 310.066406 431.75 L 328.171875 435.972656 C 330.5 436.515625 332.375 438.191406 333.179688 440.457031 C 334.34375 443.710938 335.679688 446.941406 337.160156 450.058594 C 338.195312 452.234375 338.058594 454.746094 336.796875 456.78125 L 326.976562 472.574219 C 325.085938 475.613281 324.273438 479.242188 324.683594 482.792969 C 325.09375 486.347656 326.710938 489.699219 329.238281 492.222656 L 344.207031 507.195312 C 346.738281 509.722656 350.085938 511.339844 353.636719 511.75 C 357.191406 512.160156 360.820312 511.34375 363.855469 509.457031 L 379.652344 499.636719 C 381.683594 498.371094 384.199219 498.234375 386.375 499.273438 C 389.492188 500.75 392.71875 502.089844 395.976562 503.253906 C 398.242188 504.058594 399.914062 505.929688 400.457031 508.257812 L 404.683594 526.367188 C 405.496094 529.851562 407.488281 532.992188 410.289062 535.214844 C 413.089844 537.433594 416.601562 538.660156 420.175781 538.660156 L 441.347656 538.660156 C 444.921875 538.660156 448.433594 537.433594 451.238281 535.214844 C 454.035156 532.992188 456.027344 529.851562 456.839844 526.367188 L 461.066406 508.257812 C 461.609375 505.929688 463.285156 504.058594 465.550781 503.253906 C 468.804688 502.089844 472.03125 500.75 475.148438 499.273438 C 477.328125 498.234375 479.839844 498.371094 481.871094 499.636719 L 497.671875 509.457031 C 500.703125 511.34375 504.335938 512.160156 507.886719 511.75 C 511.4375 511.339844 514.785156 509.722656 517.316406 507.195312 L 532.285156 492.222656 C 534.8125 489.699219 536.433594 486.347656 536.84375 482.792969 C 537.25 479.242188 536.4375 475.613281 534.546875 472.574219 L 529 463.648438 L 593.195312 463.648438 C 594.761719 466.476562 597.777344 468.390625 601.238281 468.390625 C 606.316406 468.390625 610.433594 464.273438 610.433594 459.195312 C 610.433594 454.117188 606.316406 450 601.238281 450 C 597.777344 450 594.761719 451.914062 593.195312 454.738281 L 520.804688 454.738281 C 518.34375 454.738281 516.347656 456.734375 516.347656 459.195312 C 516.347656 460.476562 516.890625 461.632812 517.761719 462.445312 L 526.984375 477.277344 C 528.707031 480.058594 528.300781 483.613281 525.988281 485.921875 L 511.015625 500.894531 C 508.703125 503.207031 505.148438 503.617188 502.371094 501.890625 L 486.574219 492.070312 C 481.957031 489.199219 476.253906 488.886719 471.324219 491.226562 C 468.480469 492.578125 465.53125 493.796875 462.554688 494.859375 C 457.425781 496.691406 453.621094 500.941406 452.386719 506.234375 L 448.164062 524.34375 C 447.421875 527.527344 444.617188 529.75 441.347656 529.75 L 420.175781 529.75 C 416.90625 529.75 414.101562 527.527344 413.359375 524.34375 L 409.132812 506.234375 C 407.898438 500.941406 404.097656 496.691406 398.96875 494.859375 C 395.996094 493.796875 393.042969 492.578125 390.199219 491.226562 C 385.269531 488.886719 379.566406 489.199219 374.949219 492.070312 L 359.152344 501.890625 C 356.375 503.617188 352.820312 503.207031 350.507812 500.894531 L 335.535156 485.921875 C 333.222656 483.613281 332.816406 480.058594 334.542969 477.277344 L 344.363281 461.484375 C 347.234375 456.863281 347.550781 451.164062 345.207031 446.230469 C 343.855469 443.386719 342.632812 440.4375 341.570312 437.464844 C 339.742188 432.332031 335.492188 428.53125 330.199219 427.296875 L 312.089844 423.070312 C 308.90625 422.332031 306.679688 419.527344 306.679688 416.253906 L 306.679688 410.125 L 306.714844 404.589844 C 306.691406 404.5 306.679688 404.414062 306.679688 404.324219 L 306.679688 394.195312 C 306.679688 391.488281 307.605469 388.828125 309.289062 386.710938 C 310.972656 384.589844 313.347656 383.085938 315.984375 382.46875 L 333.308594 378.425781 C 336.601562 377.65625 339.242188 375.296875 340.378906 372.105469 C 341.453125 369.089844 342.695312 366.097656 344.066406 363.214844 C 345.523438 360.144531 345.328125 356.601562 343.542969 353.730469 L 334.148438 338.613281 C 332.71875 336.316406 332.101562 333.570312 332.414062 330.878906 C 332.722656 328.195312 333.945312 325.660156 335.859375 323.746094 L 350.1875 309.421875 C 352.097656 307.507812 354.632812 306.285156 357.320312 305.972656 C 360.007812 305.660156 362.753906 306.28125 365.054688 307.710938 L 380.171875 317.105469 C 383.039062 318.890625 386.585938 319.085938 389.652344 317.625 C 392.535156 316.257812 395.527344 315.015625 398.539062 313.941406 C 401.734375 312.804688 404.097656 310.160156 404.863281 306.871094 L 408.90625 289.542969 C 409.523438 286.910156 411.03125 284.53125 413.148438 282.851562 C 415.269531 281.167969 417.925781 280.242188 420.632812 280.242188 L 440.890625 280.242188 C 443.597656 280.242188 446.253906 281.167969 448.375 282.851562 C 450.492188 284.53125 452 286.90625 452.617188 289.542969 L 456.660156 306.871094 C 457.417969 310.117188 459.730469 312.734375 462.855469 313.894531 C 463.355469 314.089844 463.90625 314.199219 464.472656 314.199219 L 598.59375 314.199219 C 600.164062 317.023438 603.175781 318.941406 606.636719 318.941406 Z M 366.746094 407.671875 C 366.746094 442.96875 395.464844 471.6875 430.761719 471.6875 C 466.0625 471.6875 494.777344 442.96875 494.777344 407.671875 C 494.777344 405.214844 496.773438 403.21875 499.230469 403.21875 L 579.128906 403.21875 C 580.699219 400.390625 583.710938 398.480469 587.171875 398.480469 C 592.25 398.480469 596.367188 402.59375 596.367188 407.671875 C 596.367188 412.75 592.25 416.867188 587.171875 416.867188 C 583.710938 416.867188 580.699219 414.953125 579.128906 412.125 L 503.554688 412.125 C 503.058594 420.398438 501.179688 428.425781 497.953125 436.058594 C 494.28125 444.742188 489.019531 452.539062 482.324219 459.234375 C 475.632812 465.933594 467.832031 471.191406 459.148438 474.863281 C 450.15625 478.667969 440.605469 480.597656 430.761719 480.597656 C 420.917969 480.597656 411.371094 478.667969 402.375 474.863281 C 393.691406 471.191406 385.890625 465.933594 379.195312 459.234375 C 372.5 452.539062 367.242188 444.742188 363.570312 436.058594 C 359.765625 427.0625 357.839844 417.515625 357.839844 407.671875 C 357.839844 397.828125 359.765625 388.277344 363.570312 379.285156 C 367.242188 370.601562 372.5 362.804688 379.195312 356.109375 C 385.890625 349.410156 393.691406 344.15625 402.375 340.476562 C 411.371094 336.675781 420.917969 334.746094 430.761719 334.746094 C 440.757812 334.746094 450.445312 336.734375 459.554688 340.652344 C 467.640625 344.132812 474.933594 348.980469 481.277344 355.078125 L 551.769531 355.078125 C 553.335938 352.253906 556.351562 350.339844 559.8125 350.339844 C 564.890625 350.339844 569.007812 354.457031 569.007812 359.535156 C 569.007812 364.613281 564.890625 368.730469 559.8125 368.730469 C 556.351562 368.730469 553.335938 366.8125 551.769531 363.988281 L 479.375 363.988281 C 477.894531 363.988281 476.585938 363.265625 475.777344 362.160156 C 463.714844 350.214844 447.773438 343.65625 430.761719 343.65625 C 395.464844 343.65625 366.746094 372.375 366.746094 407.671875 " fill-opacity="1" fill-rule="nonzero"/></g><g fill="#ffffff" fill-opacity="1"><g transform="translate(382.289049, 445.878895)"><g><path d="M 5.09375 -41.359375 C 5.09375 -49.421875 6.910156 -56.671875 10.546875 -63.109375 C 14.179688 -69.546875 19.140625 -74.582031 25.421875 -78.21875 C 31.703125 -81.851562 38.675781 -83.671875 46.34375 -83.671875 C 55.34375 -83.671875 63.203125 -81.5 69.921875 -77.15625 C 76.640625 -72.8125 81.539062 -66.648438 84.625 -58.671875 L 71.703125 -58.671875 C 69.410156 -63.640625 66.109375 -67.46875 61.796875 -70.15625 C 57.492188 -72.84375 52.34375 -74.1875 46.34375 -74.1875 C 40.570312 -74.1875 35.394531 -72.84375 30.8125 -70.15625 C 26.226562 -67.46875 22.632812 -63.65625 20.03125 -58.71875 C 17.425781 -53.78125 16.125 -47.992188 16.125 -41.359375 C 16.125 -34.804688 17.425781 -29.054688 20.03125 -24.109375 C 22.632812 -19.171875 26.226562 -15.359375 30.8125 -12.671875 C 35.394531 -9.992188 40.570312 -8.65625 46.34375 -8.65625 C 52.34375 -8.65625 57.492188 -9.976562 61.796875 -12.625 C 66.109375 -15.269531 69.410156 -19.082031 71.703125 -24.0625 L 84.625 -24.0625 C 81.539062 -16.15625 76.640625 -10.046875 69.921875 -5.734375 C 63.203125 -1.429688 55.34375 0.71875 46.34375 0.71875 C 38.675781 0.71875 31.703125 -1.078125 25.421875 -4.671875 C 19.140625 -8.273438 14.179688 -13.273438 10.546875 -19.671875 C 6.910156 -26.066406 5.09375 -33.296875 5.09375 -41.359375 Z M 5.09375 -41.359375 "/></g></g></g><g fill="#ffffff" fill-opacity="1"><g transform="translate(473.780153, 445.878895)"><g><path d="M 46.578125 0.828125 C 38.910156 0.828125 31.914062 -0.96875 25.59375 -4.5625 C 19.28125 -8.15625 14.285156 -13.171875 10.609375 -19.609375 C 6.929688 -26.046875 5.09375 -33.296875 5.09375 -41.359375 C 5.09375 -49.421875 6.929688 -56.671875 10.609375 -63.109375 C 14.285156 -69.546875 19.28125 -74.5625 25.59375 -78.15625 C 31.914062 -81.75 38.910156 -83.546875 46.578125 -83.546875 C 54.316406 -83.546875 61.347656 -81.75 67.671875 -78.15625 C 73.992188 -74.5625 78.972656 -69.5625 82.609375 -63.15625 C 86.242188 -56.757812 88.0625 -49.492188 88.0625 -41.359375 C 88.0625 -33.222656 86.242188 -25.953125 82.609375 -19.546875 C 78.972656 -13.148438 73.992188 -8.15625 67.671875 -4.5625 C 61.347656 -0.96875 54.316406 0.828125 46.578125 0.828125 Z M 46.578125 -8.53125 C 52.347656 -8.53125 57.539062 -9.875 62.15625 -12.5625 C 66.78125 -15.25 70.414062 -19.082031 73.0625 -24.0625 C 75.707031 -29.039062 77.03125 -34.804688 77.03125 -41.359375 C 77.03125 -47.992188 75.707031 -53.78125 73.0625 -58.71875 C 70.414062 -63.65625 66.800781 -67.46875 62.21875 -70.15625 C 57.632812 -72.84375 52.421875 -74.1875 46.578125 -74.1875 C 40.734375 -74.1875 35.519531 -72.84375 30.9375 -70.15625 C 26.351562 -67.46875 22.738281 -63.65625 20.09375 -58.71875 C 17.445312 -53.78125 16.125 -47.992188 16.125 -41.359375 C 16.125 -34.804688 17.445312 -29.039062 20.09375 -24.0625 C 22.738281 -19.082031 26.367188 -15.25 30.984375 -12.5625 C 35.609375 -9.875 40.804688 -8.53125 46.578125 -8.53125 Z M 46.578125 -8.53125 "/></g></g></g><g fill="#ffffff" fill-opacity="1"><g transform="translate(566.93042, 445.878895)"><g><path d="M 34.84375 -82.609375 C 43.851562 -82.609375 51.65625 -80.925781 58.25 -77.5625 C 64.84375 -74.207031 69.894531 -69.410156 73.40625 -63.171875 C 76.925781 -56.929688 78.6875 -49.582031 78.6875 -41.125 C 78.6875 -32.664062 76.925781 -25.335938 73.40625 -19.140625 C 69.894531 -12.941406 64.84375 -8.203125 58.25 -4.921875 C 51.65625 -1.640625 43.851562 0 34.84375 0 L 9.125 0 L 9.125 -82.609375 Z M 34.84375 -8.890625 C 45.507812 -8.890625 53.644531 -11.710938 59.25 -17.359375 C 64.863281 -23.015625 67.671875 -30.9375 67.671875 -41.125 C 67.671875 -51.394531 64.84375 -59.410156 59.1875 -65.171875 C 53.539062 -70.941406 45.425781 -73.828125 34.84375 -73.828125 L 19.90625 -73.828125 L 19.90625 -8.890625 Z M 34.84375 -8.890625 "/></g></g></g><g fill="#ffffff" fill-opacity="1"><g transform="translate(650.718266, 445.878895)"><g><path d="M 19.90625 -73.828125 L 19.90625 -46.21875 L 50.015625 -46.21875 L 50.015625 -37.328125 L 19.90625 -37.328125 L 19.90625 -8.890625 L 53.5625 -8.890625 L 53.5625 0 L 9.125 0 L 9.125 -82.71875 L 53.5625 -82.71875 L 53.5625 -73.828125 Z M 19.90625 -73.828125 "/></g></g></g><g fill="#ffffff" fill-opacity="1"><g transform="translate(711.514818, 445.878895)"><g><path d="M 71.703125 -58.671875 C 69.410156 -63.484375 66.09375 -67.210938 61.75 -69.859375 C 57.40625 -72.503906 52.347656 -73.828125 46.578125 -73.828125 C 40.804688 -73.828125 35.609375 -72.503906 30.984375 -69.859375 C 26.367188 -67.210938 22.738281 -63.421875 20.09375 -58.484375 C 17.445312 -53.546875 16.125 -47.835938 16.125 -41.359375 C 16.125 -34.878906 17.445312 -29.191406 20.09375 -24.296875 C 22.738281 -19.398438 26.367188 -15.625 30.984375 -12.96875 C 35.609375 -10.320312 40.804688 -9 46.578125 -9 C 54.640625 -9 61.273438 -11.410156 66.484375 -16.234375 C 71.703125 -21.054688 74.742188 -27.578125 75.609375 -35.796875 L 42.671875 -35.796875 L 42.671875 -44.5625 L 87.109375 -44.5625 L 87.109375 -36.265625 C 86.472656 -29.472656 84.335938 -23.25 80.703125 -17.59375 C 77.066406 -11.945312 72.285156 -7.484375 66.359375 -4.203125 C 60.441406 -0.921875 53.847656 0.71875 46.578125 0.71875 C 38.910156 0.71875 31.914062 -1.078125 25.59375 -4.671875 C 19.28125 -8.273438 14.285156 -13.273438 10.609375 -19.671875 C 6.929688 -26.066406 5.09375 -33.296875 5.09375 -41.359375 C 5.09375 -49.421875 6.929688 -56.671875 10.609375 -63.109375 C 14.285156 -69.546875 19.28125 -74.5625 25.59375 -78.15625 C 31.914062 -81.75 38.910156 -83.546875 46.578125 -83.546875 C 55.347656 -83.546875 63.109375 -81.375 69.859375 -77.03125 C 76.617188 -72.6875 81.539062 -66.566406 84.625 -58.671875 Z M 71.703125 -58.671875 "/></g></g></g><g fill="#ffffff" fill-opacity="1"><g transform="translate(803.716977, 445.878895)"><g><path d="M 52.625 0 L 32.953125 -33.78125 L 19.90625 -33.78125 L 19.90625 0 L 9.125 0 L 9.125 -82.609375 L 35.796875 -82.609375 C 42.035156 -82.609375 47.304688 -81.539062 51.609375 -79.40625 C 55.921875 -77.269531 59.140625 -74.382812 61.265625 -70.75 C 63.398438 -67.113281 64.46875 -62.96875 64.46875 -58.3125 C 64.46875 -52.625 62.828125 -47.601562 59.546875 -43.25 C 56.273438 -38.90625 51.359375 -36.023438 44.796875 -34.609375 L 65.546875 0 Z M 19.90625 -42.421875 L 35.796875 -42.421875 C 41.640625 -42.421875 46.019531 -43.863281 48.9375 -46.75 C 51.863281 -49.632812 53.328125 -53.488281 53.328125 -58.3125 C 53.328125 -63.207031 51.882812 -67 49 -69.6875 C 46.125 -72.375 41.722656 -73.71875 35.796875 -73.71875 L 19.90625 -73.71875 Z M 19.90625 -42.421875 "/></g></g></g><g fill="#ffffff" fill-opacity="1"><g transform="translate(875.772133, 445.878895)"><g><path d="M 57.953125 -18.375 L 21.921875 -18.375 L 15.28125 0 L 3.90625 0 L 33.78125 -82.125 L 46.21875 -82.125 L 75.96875 0 L 64.59375 0 Z M 54.875 -27.140625 L 39.9375 -68.859375 L 25 -27.140625 Z M 54.875 -27.140625 "/></g></g></g><g fill="#ffffff" fill-opacity="1"><g transform="translate(955.649098, 445.878895)"><g><path d="M 92.921875 -82.015625 L 92.921875 0 L 82.125 0 L 82.125 -61.15625 L 54.875 0 L 47.28125 0 L 19.90625 -61.265625 L 19.90625 0 L 9.125 0 L 9.125 -82.015625 L 20.734375 -82.015625 L 51.078125 -14.21875 L 81.421875 -82.015625 Z M 92.921875 -82.015625 "/></g></g></g></svg>